<?xml version="1.0" encoding="UTF-8"?>
<svg id="Capa_1" xmlns="http://www.w3.org/2000/svg" version="1.1" viewBox="0 0 399.59 65.96">
  <!-- Generator: Adobe Illustrator 30.3.0, SVG Export Plug-In . SVG Version: 2.1.3 Build 182)  -->
  <path d="M399.59,5.26v3.74c-1.01,3.75-4.67,5.98-8.6,5.27-3.58-.65-5.97-3.66-5.91-7.24.06-3.34,2.46-6.45,5.99-6.94,4.14-.57,7.28,1.41,8.51,5.17ZM398.34,7.17c0-3.27-2.65-5.93-5.93-5.93s-5.93,2.65-5.93,5.93,2.65,5.93,5.93,5.93,5.93-2.65,5.93-5.93Z"/>
  <path d="M360.78,25.6l17.3,39.15-29.56.03-7.83-23.49-7.68,8.41-1.33,15.07h-28.13s5.55-63.45,5.55-63.45h28.15s-.75,8.32-.75,8.32c-.45,5.26-1.55,10.18-3.25,15.2.21.27.45.46.81.62l19.9-24.15,28.8.02-21.98,24.27Z"/>
  <g>
    <g>
      <path d="M296.1,57.65c.82,4.47,2.64,5.34,2.73,5.84.07.37-.16,1.08-.43,1.27h-29.65c-.89-1.97-1.32-3.92-1.54-6.02l-1.17-10.89c-.18-1.68-.99-3.02-2.26-4.03-.99-.34-1.99-.56-3.06-.69l-6.81.02-1.88,21.61h-28.14s5.56-63.43,5.56-63.43h45.79c3.66,0,7.02.46,10.53,1.13,7.21,1.64,13.23,5.61,14.21,13.29.52,4.09.11,8.21-1.33,12.06-3.28,8.72-12.5,8.95-13.26,9.76-.11.12-.05.57.03.72l2.38.69c3.18.92,5.48,3.33,6.09,6.65l2.2,12.03ZM271.43,20.4c-.21-1.39-1.04-2.27-2.32-2.77l-2.86-.44-10.05-.02-1,11.46,9.68.02,2.87-.29c3.45-.82,4.2-4.63,3.69-7.96Z"/>
      <path d="M189.11,58.33h-17.79s-2.36,6.44-2.36,6.44l-27.53-.02L169.3,1.31h33.26s16.79,63.43,16.79,63.43l-29.02.02-1.22-6.44ZM186.8,43.77l-1.51-10.36-1.28-12.5h-.91s-2.9,10.65-2.9,10.65l-3.9,12.23h10.5Z"/>
    </g>
    <g>
      <path d="M39.77,65.96h-10.57c-7.6-.42-17.03-2.09-23.2-6.91C2.78,56.55.46,53.1.07,48.98c-.13-1.31-.04-2.6-.02-3.94l28.26-1.68c-.25,2.83,1.12,5.25,3.82,6.08,3.6,1.11,7.66,1.13,11.29.12,1.7-.47,2.76-2.22,2.06-3.81-.36-.83-1.49-1.45-2.37-1.71-2.62-.78-5.12-1.31-7.82-1.78l-15.04-2.65c-3.65-.64-6.97-1.97-10.05-3.86-4.66-2.86-7.29-7.53-7.42-12.98-.14-6.27,2.62-11.92,7.72-15.57C20.11.31,34.35-.42,45.94.17c8.33.43,18.65,2.71,24.34,8.93,3,3.27,4.24,7.56,3.57,11.81l-25.44,1.93c.12-4.37-2.92-6.41-6.89-6.83-3.65-.39-9.76-.43-11.39,2.51-.27.48-.31,1.49-.08,1.97.69,1.5,5.86,2.41,8.53,2.86l16.74,2.82c5.47.92,12.25,2.93,15.73,7.18,2.35,2.87,3.07,6.44,2.82,10.1-.7,9.92-7.83,16.01-16.82,19.25-5.61,2.02-11.41,2.94-17.26,3.26Z"/>
      <path d="M149.67,32.27c-3.6,12.12-14.34,15.79-26.18,16.28h-16.59s-1.42,16.22-1.42,16.22h-28.13S82.91,1.32,82.91,1.32l44.72.04c4.23,0,8.17.74,12.02,2.05,6.13,2.12,10.28,7.01,11.2,13.45.74,5.16.31,10.37-1.18,15.4ZM119.39,17.68c-.85-.21-1.87-.51-2.75-.51h-6.99s-1.36,15.51-1.36,15.51l7.36-.06c2.72-.02,5.2-1.46,6.21-3.98,1.48-3.68,1.54-9.52-2.47-10.96Z"/>
    </g>
  </g>
  <path d="M394.26,10.89c-.26-.92-.43-1.8-.88-2.56-.42-.71-1.91-.7-2.43-.37l-.08,2.94h-1.06s0-7.58,0-7.58l3.54.02c1.07,0,1.89.78,2.07,1.64.22,1.08-.39,1.98-1.48,2.41.28.31.73.86.83,1.19l.68,2.33h-1.18ZM393.48,6.65c.48-.02.95-1.02.81-1.42-.15-.44-.76-.91-1.21-.91h-2.2s.08,2.46.08,2.46l2.52-.13Z"/>
</svg>